<?xml version="1.0" encoding="UTF-8" standalone="no"?>
<!DOCTYPE svg PUBLIC "-//W3C//DTD SVG 1.1//EN" "http://www.w3.org/Graphics/SVG/1.1/DTD/svg11.dtd">
<svg version="1.1" xmlns="http://www.w3.org/2000/svg" xmlns:xlink="http://www.w3.org/1999/xlink" preserveAspectRatio="xMidYMid meet" viewBox="0 0 640 640" width="1920" height="1920"><defs><path d="M157.9 -4.43C157.9 72.83 91.56 135.57 9.84 135.57C-71.87 135.57 -138.21 72.83 -138.21 -4.43C-138.21 -81.7 -71.87 -144.43 9.84 -144.43C91.56 -144.43 157.9 -81.7 157.9 -4.43Z" id="e1EZ5733ci"></path><path d="M623.72 2.7C623.72 73.34 566 130.7 494.92 130.7C423.83 130.7 366.12 73.34 366.12 2.7C366.12 -67.95 423.83 -125.3 494.92 -125.3C566 -125.3 623.72 -67.95 623.72 2.7Z" id="bvkfbMkAK"></path><path d="M228.65 20.68C228.65 35.85 215.99 48.18 200.4 48.18C184.8 48.18 172.14 35.85 172.14 20.68C172.14 5.5 184.8 -6.82 200.4 -6.82C215.99 -6.82 228.65 5.5 228.65 20.68Z" id="a2fSEu4naa"></path><path d="M41.46 169.19C41.46 173.41 38.1 176.84 33.96 176.84C29.82 176.84 26.46 173.41 26.46 169.19C26.46 164.97 29.82 161.55 33.96 161.55C38.1 161.55 41.46 164.97 41.46 169.19Z" id="d5oxMBLk1C"></path><path d="M692.62 727.04C692.62 826.39 608.66 907.04 505.25 907.04C401.84 907.04 317.88 826.39 317.88 727.04C317.88 627.7 401.84 547.04 505.25 547.04C608.66 547.04 692.62 627.7 692.62 727.04Z" id="bsMRsfntV"></path><path d="M516.79 466.94C516.79 471.08 513.4 474.44 509.23 474.44C505.05 474.44 501.66 471.08 501.66 466.94C501.66 462.8 505.05 459.44 509.23 459.44C513.4 459.44 516.79 462.8 516.79 466.94Z" id="b1O38IgrqE"></path><path d="M457.33 392.41C457.33 481.22 382.27 553.33 289.82 553.33C197.37 553.33 122.31 481.22 122.31 392.41C122.31 303.6 197.37 231.49 289.82 231.49C382.27 231.49 457.33 303.6 457.33 392.41Z" id="a16TQcC8zQ"></path><path d="M130.24 265.13C130.24 296.59 105.19 322.13 74.33 322.13C43.47 322.13 18.42 296.59 18.42 265.13C18.42 233.67 43.47 208.13 74.33 208.13C105.19 208.13 130.24 233.67 130.24 265.13Z" id="i3QpLsbOhc"></path><path d="M630.71 231.49C630.71 254.67 611.72 273.49 588.34 273.49C564.96 273.49 545.97 254.67 545.97 231.49C545.97 208.31 564.96 189.49 588.34 189.49C611.72 189.49 630.71 208.31 630.71 231.49Z" id="cCSdfIoB2"></path><path d="M72.87 615.44C72.87 622.33 67.37 627.94 60.61 627.94C53.84 627.94 48.35 622.33 48.35 615.44C48.35 608.54 53.84 602.94 60.61 602.94C67.37 602.94 72.87 608.54 72.87 615.44Z" id="e2dOwj4QUT"></path><path d="M174.99 51.46C174.99 55.68 171.63 59.1 167.49 59.1C163.35 59.1 159.99 55.68 159.99 51.46C159.99 47.24 163.35 43.81 167.49 43.81C171.63 43.81 174.99 47.24 174.99 51.46Z" id="flEobpxUL"></path><path d="M396.14 110.52C396.14 114.66 392.75 118.02 388.57 118.02C384.4 118.02 381.01 114.66 381.01 110.52C381.01 106.38 384.4 103.02 388.57 103.02C392.75 103.02 396.14 106.38 396.14 110.52Z" id="i1Qs0IFoin"></path></defs><g><g><g><use xlink:href="#e1EZ5733ci" opacity="1" fill="#eeee00" fill-opacity="1"></use></g><g><use xlink:href="#bvkfbMkAK" opacity="1" fill="#ff7800" fill-opacity="1"></use></g><g><use xlink:href="#a2fSEu4naa" opacity="1" fill="#e20000" fill-opacity="1"></use></g><g><use xlink:href="#d5oxMBLk1C" opacity="1" fill="#e20000" fill-opacity="1"></use></g><g><use xlink:href="#bsMRsfntV" opacity="1" fill="#ff7800" fill-opacity="1"></use></g><g><use xlink:href="#b1O38IgrqE" opacity="1" fill="#eeee00" fill-opacity="1"></use></g><g><use xlink:href="#a16TQcC8zQ" opacity="1" fill="#e20000" fill-opacity="1"></use></g><g><use xlink:href="#i3QpLsbOhc" opacity="1" fill="#ff7800" fill-opacity="1"></use></g><g><use xlink:href="#cCSdfIoB2" opacity="1" fill="#eeee00" fill-opacity="1"></use></g><g><use xlink:href="#e2dOwj4QUT" opacity="1" fill="#e20000" fill-opacity="1"></use></g><g><use xlink:href="#flEobpxUL" opacity="1" fill="#ff7800" fill-opacity="1"></use></g><g><use xlink:href="#i1Qs0IFoin" opacity="1" fill="#eeee00" fill-opacity="1"></use></g></g></g></svg>